<mxfile host="Electron" agent="Mozilla/5.0 (Windows NT 10.0; Win64; x64) AppleWebKit/537.36 (KHTML, like Gecko) draw.io/26.2.2 Chrome/134.0.6998.178 Electron/35.1.2 Safari/537.36" version="26.2.2">
  <diagram id="C5RBs43oDa-KdzZeNtuy" name="classDiagram">
    <mxGraphModel dx="605" dy="1018" grid="1" gridSize="10" guides="1" tooltips="1" connect="1" arrows="1" fold="1" page="1" pageScale="1" pageWidth="827" pageHeight="1169" math="0" shadow="0">
      <root>
        <mxCell id="WIyWlLk6GJQsqaUBKTNV-0" />
        <mxCell id="WIyWlLk6GJQsqaUBKTNV-1" parent="WIyWlLk6GJQsqaUBKTNV-0" />
        <mxCell id="kHUOEXosNKHLMnKDhNxX-5" value="&lt;p style=&quot;margin:0px;margin-top:4px;text-align:center;&quot;&gt;&lt;b&gt;Employee&lt;/b&gt;&lt;/p&gt;&lt;hr size=&quot;1&quot;/&gt;&lt;p style=&quot;margin:0 0 0 4px;line-height:1.6;&quot;&gt;- serialVersionUID: long&lt;br/&gt;- idEmployee: int&lt;br/&gt;- name: String&lt;/p&gt;&lt;hr size=&quot;1&quot;/&gt;&lt;p style=&quot;margin:0 0 0 4px;line-height:1.6;&quot;&gt;+ getName(): String&lt;br/&gt;+ equals(Object): boolean&lt;br/&gt;+ toString(): String&lt;br/&gt;+ hashCode(): int&lt;br/&gt;+ getIdEmployee(): int&lt;/p&gt;" style="verticalAlign=top;align=left;overflow=fill;fontSize=14;fontFamily=Helvetica;html=1;rounded=0;shadow=0;comic=0;labelBackgroundColor=none;strokeWidth=1;" parent="WIyWlLk6GJQsqaUBKTNV-1" vertex="1">
          <mxGeometry x="620" y="170" width="194" height="232" as="geometry" />
        </mxCell>
        <mxCell id="kHUOEXosNKHLMnKDhNxX-6" value="&lt;p style=&quot;margin:0px;margin-top:4px;text-align:center;&quot;&gt;&lt;b&gt;Task&lt;/b&gt;&lt;/p&gt;&lt;hr size=&quot;1&quot;/&gt;&lt;p style=&quot;margin:0 0 0 4px;line-height:1.6;&quot;&gt;# statusTask: String&lt;br/&gt;- serialVersionUID: long&lt;br/&gt;# idTask: int&lt;/p&gt;&lt;hr size=&quot;1&quot;/&gt;&lt;p style=&quot;margin:0 0 0 4px;line-height:1.6;&quot;&gt;+ estimateDuration(): int&lt;br/&gt;+ setIdTask(int): void&lt;br/&gt;+ setStatusTask(String): void&lt;br/&gt;+ getIdTask(): int&lt;br/&gt;+ getStatusTask(): String&lt;/p&gt;" style="verticalAlign=top;align=left;overflow=fill;fontSize=14;fontFamily=Helvetica;html=1;rounded=0;shadow=0;comic=0;labelBackgroundColor=none;strokeWidth=1;" parent="WIyWlLk6GJQsqaUBKTNV-1" vertex="1">
          <mxGeometry x="1100" y="170" width="215" height="232" as="geometry" />
        </mxCell>
        <mxCell id="kHUOEXosNKHLMnKDhNxX-7" value="&lt;p style=&quot;margin:0px;margin-top:4px;text-align:center;&quot;&gt;&lt;b&gt;SimpleTask&lt;/b&gt;&lt;/p&gt;&lt;hr size=&quot;1&quot;/&gt;&lt;p style=&quot;margin:0 0 0 4px;line-height:1.6;&quot;&gt;# startHour: int&lt;br/&gt;# endHour: int&lt;/p&gt;&lt;hr size=&quot;1&quot;/&gt;&lt;p style=&quot;margin:0 0 0 4px;line-height:1.6;&quot;&gt;+ estimateDuration(): int&lt;br/&gt;+ toString(): String&lt;/p&gt;" style="verticalAlign=top;align=left;overflow=fill;fontSize=14;fontFamily=Helvetica;html=1;rounded=0;shadow=0;comic=0;labelBackgroundColor=none;strokeWidth=1;" parent="WIyWlLk6GJQsqaUBKTNV-1" vertex="1">
          <mxGeometry x="950" y="481" width="185" height="147" as="geometry" />
        </mxCell>
        <mxCell id="kHUOEXosNKHLMnKDhNxX-8" value="&lt;p style=&quot;margin:0px;margin-top:4px;text-align:center;&quot;&gt;&lt;b&gt;ComplexTask&lt;/b&gt;&lt;/p&gt;&lt;hr size=&quot;1&quot;/&gt;&lt;p style=&quot;margin:0 0 0 4px;line-height:1.6;&quot;&gt;# tasks: List&amp;lt;Task&amp;gt;&lt;br/&gt;- serialVersionUID: long&lt;/p&gt;&lt;hr size=&quot;1&quot;/&gt;&lt;p style=&quot;margin:0 0 0 4px;line-height:1.6;&quot;&gt;+ deleteTask(Task): void&lt;br/&gt;+ addTask(Task): void&lt;br/&gt;+ toString(): String&lt;br/&gt;+ estimateDuration(): int&lt;br/&gt;+ getTasks(): List&amp;lt;Task&amp;gt;&lt;/p&gt;" style="verticalAlign=top;align=left;overflow=fill;fontSize=14;fontFamily=Helvetica;html=1;rounded=0;shadow=0;comic=0;labelBackgroundColor=none;strokeWidth=1;" parent="WIyWlLk6GJQsqaUBKTNV-1" vertex="1">
          <mxGeometry x="1320" y="481" width="192" height="208" as="geometry" />
        </mxCell>
        <mxCell id="kHUOEXosNKHLMnKDhNxX-12" value="" style="html=1;rounded=1;edgeStyle=orthogonalEdgeStyle;dashed=0;startArrow=none;endArrow=block;endSize=12;strokeColor=#000082;exitX=0.5;exitY=0;exitDx=0;exitDy=0;entryX=0.5;entryY=1;entryDx=0;entryDy=0;" parent="WIyWlLk6GJQsqaUBKTNV-1" source="kHUOEXosNKHLMnKDhNxX-7" target="kHUOEXosNKHLMnKDhNxX-6" edge="1">
          <mxGeometry width="50" height="50" relative="1" as="geometry">
            <Array as="points">
              <mxPoint x="1043" y="450" />
              <mxPoint x="1208" y="450" />
            </Array>
            <mxPoint x="208" y="457" as="sourcePoint" />
            <mxPoint x="377" y="464" as="targetPoint" />
          </mxGeometry>
        </mxCell>
        <mxCell id="kHUOEXosNKHLMnKDhNxX-13" value="" style="html=1;rounded=1;edgeStyle=orthogonalEdgeStyle;dashed=0;startArrow=none;endArrow=block;endSize=12;strokeColor=#000082;entryX=0.646;entryY=0.999;entryDx=0;entryDy=0;entryPerimeter=0;" parent="WIyWlLk6GJQsqaUBKTNV-1" target="kHUOEXosNKHLMnKDhNxX-6" edge="1">
          <mxGeometry width="50" height="50" relative="1" as="geometry">
            <Array as="points">
              <mxPoint x="1420" y="450" />
              <mxPoint x="1240" y="450" />
              <mxPoint x="1240" y="420" />
              <mxPoint x="1239" y="420" />
            </Array>
            <mxPoint x="1420" y="480" as="sourcePoint" />
            <mxPoint x="1240" y="410" as="targetPoint" />
          </mxGeometry>
        </mxCell>
        <mxCell id="kHUOEXosNKHLMnKDhNxX-14" value="&lt;p style=&quot;margin:0px;margin-top:4px;text-align:center;&quot;&gt;&lt;b&gt;TaskManagement&lt;/b&gt;&lt;/p&gt;&lt;hr size=&quot;1&quot;/&gt;&lt;p style=&quot;margin:0 0 0 4px;line-height:1.6;&quot;&gt;~ map: Map&amp;lt;Employee, List&amp;lt;Task&amp;gt;&amp;gt;&lt;br/&gt;- persist: PersistData&lt;br/&gt;- unassignedTasks: List&amp;lt;Task&amp;gt;&lt;/p&gt;&lt;hr size=&quot;1&quot;/&gt;&lt;p style=&quot;margin:0 0 0 4px;line-height:1.6;&quot;&gt;+ callSaveData(): void&lt;br/&gt;+ calculateEmployeeWorkDuration(int): int&lt;br/&gt;+ getAllTasks(): List&amp;lt;String&amp;gt;&lt;br/&gt;+ getEmployeeList(): List&amp;lt;Employee&amp;gt;&lt;br/&gt;+ getNextTaskId(): int&lt;br/&gt;+ modifyTaskStatus(Employee, int, String): void&lt;br/&gt;+ removeUnassignedTask(Task): void&lt;br/&gt;+ assignTaskToEmployee(Employee, Task): void&lt;br/&gt;+ getAssignedTasks(): List&amp;lt;Task&amp;gt;&lt;br/&gt;+ getUnassignedTasks(): List&amp;lt;Task&amp;gt;&lt;br/&gt;+ getMap(): Map&amp;lt;Employee, List&amp;lt;Task&amp;gt;&amp;gt;&lt;br/&gt;+ addUnassignedTask(Task): void&lt;br/&gt;+ addEmployee(Employee): void&lt;/p&gt;" style="verticalAlign=top;align=left;overflow=fill;fontSize=14;fontFamily=Helvetica;html=1;rounded=0;shadow=0;comic=0;labelBackgroundColor=none;strokeWidth=1;" parent="WIyWlLk6GJQsqaUBKTNV-1" vertex="1">
          <mxGeometry x="120" y="481" width="335" height="424" as="geometry" />
        </mxCell>
        <mxCell id="kHUOEXosNKHLMnKDhNxX-32" value="&lt;p style=&quot;margin:0px;margin-top:4px;text-align:center;&quot;&gt;&lt;b&gt;PersistData&lt;/b&gt;&lt;/p&gt;&lt;hr size=&quot;1&quot;/&gt;&lt;p style=&quot;margin:0 0 0 4px;line-height:1.6;&quot;&gt;- fileNameMap: String&lt;br/&gt;- fileNameTasks: String&lt;/p&gt;&lt;hr size=&quot;1&quot;/&gt;&lt;p style=&quot;margin:0 0 0 4px;line-height:1.6;&quot;&gt;+ loadDataMap(): Map&amp;lt;Employee, List&amp;lt;Task&amp;gt;&amp;gt;&lt;br/&gt;+ loadDataUnassigned(): List&amp;lt;Task&amp;gt;&lt;br/&gt;+ saveDataTasks(List&amp;lt;Task&amp;gt;): void&lt;br/&gt;+ saveDataMap(Map&amp;lt;Employee, List&amp;lt;Task&amp;gt;&amp;gt;): void&lt;/p&gt;" style="verticalAlign=top;align=left;overflow=fill;fontSize=14;fontFamily=Helvetica;html=1;rounded=0;shadow=0;comic=0;labelBackgroundColor=none;strokeWidth=1;" parent="WIyWlLk6GJQsqaUBKTNV-1" vertex="1">
          <mxGeometry x="827" y="890" width="360" height="184" as="geometry" />
        </mxCell>
        <mxCell id="kHUOEXosNKHLMnKDhNxX-38" value="&lt;p style=&quot;margin:0px;margin-top:4px;text-align:center;&quot;&gt;&lt;b&gt;Utility&lt;/b&gt;&lt;/p&gt;&lt;hr size=&quot;1&quot;/&gt;&lt;p style=&quot;margin:0 0 0 4px;line-height:1.6;&quot;&gt;# manager: TaskManagement&lt;/p&gt;&lt;hr size=&quot;1&quot;/&gt;&lt;p style=&quot;margin:0 0 0 4px;line-height:1.6;&quot;&gt;+ workStatus(): Map&amp;lt;String, Map&amp;lt;String, Integer&amp;gt;&amp;gt;&lt;br/&gt;+ showEmployees(): List&amp;lt;Employee&amp;gt;&lt;/p&gt;" style="verticalAlign=top;align=left;overflow=fill;fontSize=14;fontFamily=Helvetica;html=1;rounded=0;shadow=0;comic=0;labelBackgroundColor=none;strokeWidth=1;" parent="WIyWlLk6GJQsqaUBKTNV-1" vertex="1">
          <mxGeometry x="280" y="994" width="359" height="121" as="geometry" />
        </mxCell>
        <mxCell id="kHUOEXosNKHLMnKDhNxX-40" value="" style="endArrow=diamondThin;endFill=0;endSize=24;html=1;rounded=0;exitX=0.5;exitY=1;exitDx=0;exitDy=0;entryX=0.25;entryY=0;entryDx=0;entryDy=0;" parent="WIyWlLk6GJQsqaUBKTNV-1" source="kHUOEXosNKHLMnKDhNxX-5" target="kHUOEXosNKHLMnKDhNxX-14" edge="1">
          <mxGeometry width="160" relative="1" as="geometry">
            <mxPoint x="720" y="430" as="sourcePoint" />
            <mxPoint x="190" y="430" as="targetPoint" />
            <Array as="points">
              <mxPoint x="717" y="430" />
              <mxPoint x="204" y="430" />
            </Array>
          </mxGeometry>
        </mxCell>
        <mxCell id="kHUOEXosNKHLMnKDhNxX-41" value="" style="endArrow=diamondThin;endFill=0;endSize=24;html=1;rounded=0;exitX=0.25;exitY=1;exitDx=0;exitDy=0;entryX=0.5;entryY=0;entryDx=0;entryDy=0;" parent="WIyWlLk6GJQsqaUBKTNV-1" source="kHUOEXosNKHLMnKDhNxX-6" target="kHUOEXosNKHLMnKDhNxX-14" edge="1">
          <mxGeometry width="160" relative="1" as="geometry">
            <mxPoint x="727" y="412" as="sourcePoint" />
            <mxPoint x="214" y="491" as="targetPoint" />
            <Array as="points">
              <mxPoint x="1154" y="440" />
              <mxPoint x="727" y="440" />
              <mxPoint x="288" y="440" />
            </Array>
          </mxGeometry>
        </mxCell>
        <mxCell id="kHUOEXosNKHLMnKDhNxX-43" value="" style="endArrow=diamondThin;endFill=0;endSize=24;html=1;rounded=0;entryX=0.75;entryY=0;entryDx=0;entryDy=0;exitX=1;exitY=0.75;exitDx=0;exitDy=0;" parent="WIyWlLk6GJQsqaUBKTNV-1" source="kHUOEXosNKHLMnKDhNxX-6" target="kHUOEXosNKHLMnKDhNxX-8" edge="1">
          <mxGeometry width="160" relative="1" as="geometry">
            <mxPoint x="1460" y="400" as="sourcePoint" />
            <mxPoint x="1480" y="370" as="targetPoint" />
            <Array as="points">
              <mxPoint x="1464" y="340" />
            </Array>
          </mxGeometry>
        </mxCell>
        <mxCell id="kHUOEXosNKHLMnKDhNxX-44" value="&lt;p style=&quot;margin:0px;margin-top:4px;text-align:center;&quot;&gt;&lt;b&gt;MainPage&lt;/b&gt;&lt;/p&gt;&lt;hr size=&quot;1&quot;&gt;&lt;p style=&quot;margin:0 0 0 4px;line-height:1.6;&quot;&gt;- popupMenuUnassigned: JPopupMenu&lt;br&gt;- util: Utility&lt;br&gt;- changeStatus: JMenuItem&lt;br&gt;- popupMenuEmployees: JPopupMenu&lt;br&gt;- employeeList: JList&amp;lt;String&amp;gt;&lt;br&gt;- popupMenuAssigned: JPopupMenu&lt;br&gt;- listModel: DefaultListModel&amp;lt;String&amp;gt;&lt;br&gt;- assignTask: JMenuItem&lt;br&gt;- rightPanel: JPanel&lt;br&gt;- manager: TaskManagement&lt;br&gt;- taskList: JList&amp;lt;String&amp;gt;&lt;/p&gt;&lt;hr size=&quot;1&quot;&gt;&lt;p style=&quot;margin:0 0 0 4px;line-height:1.6;&quot;&gt;+ showStatusOfTasks(): void&lt;br&gt;+ showPopupMenuUnassigned(MouseEvent): void&lt;br&gt;+ handleAssignTask(): void&lt;br&gt;+ handleChangeOfStatus(): void&lt;br&gt;+ showHardworkingEmployes(): void&lt;br&gt;+ addNewTask(): void&lt;br&gt;+ showTasksOfEmployee(MouseEvent): void&lt;br&gt;+ addEmployee(): void&lt;br&gt;+ loadEmployees(): void&lt;br&gt;+ showPopupMenuAssigned(MouseEvent): void&lt;br&gt;+ showEmployeeWorkDuration(): void&lt;br&gt;+ showTasks(): void&lt;/p&gt;" style="verticalAlign=top;align=left;overflow=fill;fontSize=14;fontFamily=Helvetica;html=1;rounded=0;shadow=0;comic=0;labelBackgroundColor=none;strokeWidth=1;" parent="WIyWlLk6GJQsqaUBKTNV-1" vertex="1">
          <mxGeometry x="1470" y="950" width="347" height="592" as="geometry" />
        </mxCell>
        <mxCell id="kHUOEXosNKHLMnKDhNxX-45" value="" style="endArrow=diamondThin;endFill=0;endSize=24;html=1;rounded=0;entryX=0.25;entryY=0;entryDx=0;entryDy=0;exitX=0.75;exitY=1;exitDx=0;exitDy=0;" parent="WIyWlLk6GJQsqaUBKTNV-1" source="kHUOEXosNKHLMnKDhNxX-14" target="kHUOEXosNKHLMnKDhNxX-38" edge="1">
          <mxGeometry width="160" relative="1" as="geometry">
            <mxPoint x="1220" y="730" as="sourcePoint" />
            <mxPoint x="1380" y="730" as="targetPoint" />
          </mxGeometry>
        </mxCell>
        <mxCell id="kHUOEXosNKHLMnKDhNxX-48" value="Use" style="endArrow=open;endSize=12;dashed=1;html=1;rounded=0;exitX=0.5;exitY=0;exitDx=0;exitDy=0;entryX=0.5;entryY=0;entryDx=0;entryDy=0;" parent="WIyWlLk6GJQsqaUBKTNV-1" source="kHUOEXosNKHLMnKDhNxX-44" target="kHUOEXosNKHLMnKDhNxX-6" edge="1">
          <mxGeometry width="160" relative="1" as="geometry">
            <mxPoint x="1220" y="530" as="sourcePoint" />
            <mxPoint x="1200" y="150" as="targetPoint" />
            <Array as="points">
              <mxPoint x="1640" y="90" />
              <mxPoint x="1208" y="90" />
            </Array>
          </mxGeometry>
        </mxCell>
        <mxCell id="kHUOEXosNKHLMnKDhNxX-49" value="Use" style="endArrow=open;endSize=12;dashed=1;html=1;rounded=0;exitX=0.75;exitY=0;exitDx=0;exitDy=0;entryX=0.5;entryY=0;entryDx=0;entryDy=0;" parent="WIyWlLk6GJQsqaUBKTNV-1" source="kHUOEXosNKHLMnKDhNxX-44" target="kHUOEXosNKHLMnKDhNxX-5" edge="1">
          <mxGeometry width="160" relative="1" as="geometry">
            <mxPoint x="1654" y="960" as="sourcePoint" />
            <mxPoint x="1218" y="180" as="targetPoint" />
            <Array as="points">
              <mxPoint x="1720" y="40" />
              <mxPoint x="720" y="40" />
            </Array>
          </mxGeometry>
        </mxCell>
        <mxCell id="kHUOEXosNKHLMnKDhNxX-51" value="Use" style="endArrow=open;endSize=12;dashed=1;html=1;rounded=0;exitX=0.75;exitY=0;exitDx=0;exitDy=0;entryX=0.75;entryY=1;entryDx=0;entryDy=0;" parent="WIyWlLk6GJQsqaUBKTNV-1" source="kHUOEXosNKHLMnKDhNxX-38" target="kHUOEXosNKHLMnKDhNxX-5" edge="1">
          <mxGeometry width="160" relative="1" as="geometry">
            <mxPoint x="1220" y="730" as="sourcePoint" />
            <mxPoint x="760" y="540" as="targetPoint" />
            <Array as="points">
              <mxPoint x="549" y="840" />
              <mxPoint x="550" y="640" />
              <mxPoint x="760" y="640" />
            </Array>
          </mxGeometry>
        </mxCell>
        <mxCell id="kHUOEXosNKHLMnKDhNxX-52" value="Use" style="endArrow=open;endSize=12;dashed=1;html=1;rounded=0;exitX=1;exitY=0;exitDx=0;exitDy=0;entryX=0;entryY=0.5;entryDx=0;entryDy=0;" parent="WIyWlLk6GJQsqaUBKTNV-1" source="kHUOEXosNKHLMnKDhNxX-38" target="kHUOEXosNKHLMnKDhNxX-6" edge="1">
          <mxGeometry width="160" relative="1" as="geometry">
            <mxPoint x="559" y="1004" as="sourcePoint" />
            <mxPoint x="1000" y="280" as="targetPoint" />
            <Array as="points">
              <mxPoint x="639" y="680" />
              <mxPoint x="920" y="680" />
              <mxPoint x="920" y="286" />
            </Array>
          </mxGeometry>
        </mxCell>
        <mxCell id="kHUOEXosNKHLMnKDhNxX-53" value="" style="endArrow=diamondThin;endFill=0;endSize=24;html=1;rounded=0;entryX=1;entryY=0.75;entryDx=0;entryDy=0;exitX=0.5;exitY=0;exitDx=0;exitDy=0;" parent="WIyWlLk6GJQsqaUBKTNV-1" source="kHUOEXosNKHLMnKDhNxX-32" target="kHUOEXosNKHLMnKDhNxX-14" edge="1">
          <mxGeometry width="160" relative="1" as="geometry">
            <mxPoint x="1030" y="690" as="sourcePoint" />
            <mxPoint x="1190" y="690" as="targetPoint" />
            <Array as="points">
              <mxPoint x="1007" y="800" />
            </Array>
          </mxGeometry>
        </mxCell>
        <mxCell id="kHUOEXosNKHLMnKDhNxX-54" value="" style="endArrow=diamondThin;endFill=0;endSize=24;html=1;rounded=0;entryX=0;entryY=0.5;entryDx=0;entryDy=0;exitX=0.5;exitY=1;exitDx=0;exitDy=0;" parent="WIyWlLk6GJQsqaUBKTNV-1" source="kHUOEXosNKHLMnKDhNxX-38" target="kHUOEXosNKHLMnKDhNxX-44" edge="1">
          <mxGeometry width="160" relative="1" as="geometry">
            <mxPoint x="940" y="1020" as="sourcePoint" />
            <mxPoint x="1100" y="1020" as="targetPoint" />
            <Array as="points">
              <mxPoint x="460" y="1240" />
            </Array>
          </mxGeometry>
        </mxCell>
        <mxCell id="kHUOEXosNKHLMnKDhNxX-55" value="" style="endArrow=diamondThin;endFill=0;endSize=24;html=1;rounded=0;entryX=0;entryY=0.75;entryDx=0;entryDy=0;exitX=0.25;exitY=1;exitDx=0;exitDy=0;" parent="WIyWlLk6GJQsqaUBKTNV-1" source="kHUOEXosNKHLMnKDhNxX-14" target="kHUOEXosNKHLMnKDhNxX-44" edge="1">
          <mxGeometry width="160" relative="1" as="geometry">
            <mxPoint x="470" y="1125" as="sourcePoint" />
            <mxPoint x="1480" y="1256" as="targetPoint" />
            <Array as="points">
              <mxPoint x="204" y="1394" />
            </Array>
          </mxGeometry>
        </mxCell>
        <mxCell id="kHUOEXosNKHLMnKDhNxX-56" value="&lt;p style=&quot;margin:0px;margin-top:4px;text-align:center;&quot;&gt;&lt;b&gt;Main&lt;/b&gt;&lt;/p&gt;&lt;hr size=&quot;1&quot;/&gt;&lt;p style=&quot;margin:0 0 0 4px;line-height:1.6;&quot;&gt;+ main(String[]): void&lt;/p&gt;" style="verticalAlign=top;align=left;overflow=fill;fontSize=14;fontFamily=Helvetica;html=1;rounded=0;shadow=0;comic=0;labelBackgroundColor=none;strokeWidth=1;" parent="WIyWlLk6GJQsqaUBKTNV-1" vertex="1">
          <mxGeometry x="770" y="1640" width="168" height="68" as="geometry" />
        </mxCell>
        <mxCell id="kHUOEXosNKHLMnKDhNxX-62" value="Use" style="endArrow=open;endSize=12;dashed=1;html=1;rounded=0;exitX=1;exitY=0.5;exitDx=0;exitDy=0;entryX=1;entryY=0.25;entryDx=0;entryDy=0;" parent="WIyWlLk6GJQsqaUBKTNV-1" source="kHUOEXosNKHLMnKDhNxX-32" target="kHUOEXosNKHLMnKDhNxX-6" edge="1">
          <mxGeometry width="160" relative="1" as="geometry">
            <mxPoint x="1210" y="590" as="sourcePoint" />
            <mxPoint x="1560" y="200" as="targetPoint" />
            <Array as="points">
              <mxPoint x="1300" y="980" />
              <mxPoint x="1300" y="880" />
              <mxPoint x="1400" y="880" />
              <mxPoint x="1560" y="880" />
              <mxPoint x="1560" y="228" />
            </Array>
          </mxGeometry>
        </mxCell>
        <mxCell id="kHUOEXosNKHLMnKDhNxX-63" value="Use" style="endArrow=open;endSize=12;dashed=1;html=1;rounded=0;exitX=0.75;exitY=0;exitDx=0;exitDy=0;entryX=1;entryY=0.75;entryDx=0;entryDy=0;" parent="WIyWlLk6GJQsqaUBKTNV-1" source="kHUOEXosNKHLMnKDhNxX-32" target="kHUOEXosNKHLMnKDhNxX-5" edge="1">
          <mxGeometry width="160" relative="1" as="geometry">
            <mxPoint x="1210" y="590" as="sourcePoint" />
            <mxPoint x="1370" y="590" as="targetPoint" />
            <Array as="points">
              <mxPoint x="1097" y="760" />
              <mxPoint x="830" y="760" />
              <mxPoint x="830" y="350" />
            </Array>
          </mxGeometry>
        </mxCell>
        <mxCell id="kHUOEXosNKHLMnKDhNxX-64" value="" style="endArrow=diamondThin;endFill=1;endSize=24;html=1;rounded=0;exitX=0.75;exitY=0;exitDx=0;exitDy=0;entryX=0.25;entryY=1;entryDx=0;entryDy=0;" parent="WIyWlLk6GJQsqaUBKTNV-1" source="kHUOEXosNKHLMnKDhNxX-56" target="kHUOEXosNKHLMnKDhNxX-32" edge="1">
          <mxGeometry width="160" relative="1" as="geometry">
            <mxPoint x="1110" y="1380" as="sourcePoint" />
            <mxPoint x="1270" y="1380" as="targetPoint" />
          </mxGeometry>
        </mxCell>
        <mxCell id="kHUOEXosNKHLMnKDhNxX-65" value="" style="endArrow=diamondThin;endFill=1;endSize=24;html=1;rounded=0;exitX=1;exitY=0.5;exitDx=0;exitDy=0;entryX=0.5;entryY=1;entryDx=0;entryDy=0;" parent="WIyWlLk6GJQsqaUBKTNV-1" source="kHUOEXosNKHLMnKDhNxX-56" target="kHUOEXosNKHLMnKDhNxX-44" edge="1">
          <mxGeometry width="160" relative="1" as="geometry">
            <mxPoint x="1110" y="1380" as="sourcePoint" />
            <mxPoint x="1270" y="1380" as="targetPoint" />
            <Array as="points">
              <mxPoint x="1644" y="1674" />
            </Array>
          </mxGeometry>
        </mxCell>
        <mxCell id="kHUOEXosNKHLMnKDhNxX-66" value="" style="endArrow=diamondThin;endFill=1;endSize=24;html=1;rounded=0;exitX=0;exitY=0;exitDx=0;exitDy=0;entryX=0.25;entryY=1;entryDx=0;entryDy=0;" parent="WIyWlLk6GJQsqaUBKTNV-1" source="kHUOEXosNKHLMnKDhNxX-56" target="kHUOEXosNKHLMnKDhNxX-38" edge="1">
          <mxGeometry width="160" relative="1" as="geometry">
            <mxPoint x="1110" y="1380" as="sourcePoint" />
            <mxPoint x="1270" y="1380" as="targetPoint" />
            <Array as="points">
              <mxPoint x="370" y="1640" />
            </Array>
          </mxGeometry>
        </mxCell>
        <mxCell id="kHUOEXosNKHLMnKDhNxX-68" value="" style="endArrow=diamondThin;endFill=1;endSize=24;html=1;rounded=0;exitX=0;exitY=0.75;exitDx=0;exitDy=0;entryX=0;entryY=1;entryDx=0;entryDy=0;" parent="WIyWlLk6GJQsqaUBKTNV-1" source="kHUOEXosNKHLMnKDhNxX-56" target="kHUOEXosNKHLMnKDhNxX-14" edge="1">
          <mxGeometry width="160" relative="1" as="geometry">
            <mxPoint x="790" y="1310" as="sourcePoint" />
            <mxPoint x="950" y="1310" as="targetPoint" />
            <Array as="points">
              <mxPoint x="120" y="1691" />
            </Array>
          </mxGeometry>
        </mxCell>
      </root>
    </mxGraphModel>
  </diagram>
</mxfile>
